<svg xmlns="http://www.w3.org/2000/svg" viewBox="0 0 1024 1024"><path d="M768 85.333333a85.333333 85.333333 0 0 1 85.333333 85.333334v682.666666a85.333333 85.333333 0 0 1-85.333333 85.333334H256a85.333333 85.333333 0 0 1-85.333333-85.333334V170.666667a85.333333 85.333333 0 0 1 85.333333-85.333334h512z m-298.666667 341.333334H341.333333a42.666667 42.666667 0 0 0 0 85.333333h128a42.666667 42.666667 0 0 0 0-85.333333z m213.333334-170.666667H341.333333a42.666667 42.666667 0 1 0 0 85.333333h341.333334a42.666667 42.666667 0 0 0 0-85.333333z" fill="currentColor" /></svg>
